<?xml version="1.0" standalone="no"?><!DOCTYPE svg PUBLIC "-//W3C//DTD SVG 1.1//EN" "http://www.w3.org/Graphics/SVG/1.1/DTD/svg11.dtd"><svg width="200" height="200" viewBox="0 0 200 200" version="1.1" xmlns="http://www.w3.org/2000/svg" xmlns:xlink="http://www.w3.org/1999/xlink"><defs><style type="text/css"><![CDATA[
@font-face {
  font-family: "ifont";
  src: url("//at.alicdn.com/t/font_1442373896_4754455.eot?#iefix") format("embedded-opentype"), url("//at.alicdn.com/t/font_1442373896_4754455.woff") format("woff"), url("//at.alicdn.com/t/font_1442373896_4754455.ttf") format("truetype"), url("//at.alicdn.com/t/font_1442373896_4754455.svg#ifont") format("svg");
}

]]></style></defs><g class="transform-group"><g transform="scale(0.1953125, 0.1953125)"><path d="M915.008 852.8 636.384 852.8 512 977.184 387.616 852.8 108.992 852.8C57.632 852.8 16 811.168 16 759.808L16 139.808c0-51.36 41.632-92.992 92.992-92.992l806 0c51.36 0 92.992 41.632 92.992 92.992l0 620C1008 811.168 966.368 852.8 915.008 852.8zM946 170.816c0-34.24-27.76-62-62-62L140 108.816c-34.24 0-62 27.76-62 62L78 728.8c0 34.24 27.76 62 62 62l278.608 0L512 884.192l93.376-93.392L884 790.8c34.24 0 62-27.76 62-62L946 170.816zM790.992 356.816 233.008 356.816c-17.12 0-31.008-13.872-31.008-31.008 0-17.12 13.872-30.992 31.008-30.992l558 0c17.12 0 31.008 13.888 31.008 30.992C822 342.928 808.128 356.816 790.992 356.816zM356.992 480.8l310 0c17.12 0 30.992 13.872 30.992 30.992 0 17.12-13.872 31.008-30.992 31.008L356.992 542.8c-17.12 0-30.992-13.888-30.992-31.008C326 494.688 339.888 480.8 356.992 480.8z" fill="#a9b7b7"></path></g></g></svg>