<?xml version="1.0" standalone="no"?><!DOCTYPE svg PUBLIC "-//W3C//DTD SVG 1.1//EN" "http://www.w3.org/Graphics/SVG/1.1/DTD/svg11.dtd"><svg width="200" height="200" viewBox="0 0 200 200" version="1.1" xmlns="http://www.w3.org/2000/svg" xmlns:xlink="http://www.w3.org/1999/xlink"><defs><style type="text/css"><![CDATA[
@font-face {
  font-family: "ifont";
  src: url("//at.alicdn.com/t/font_1442373896_4754455.eot?#iefix") format("embedded-opentype"), url("//at.alicdn.com/t/font_1442373896_4754455.woff") format("woff"), url("//at.alicdn.com/t/font_1442373896_4754455.ttf") format("truetype"), url("//at.alicdn.com/t/font_1442373896_4754455.svg#ifont") format("svg");
}

]]></style></defs><g class="transform-group"><g transform="scale(0.1953125, 0.1953125)"><path d="M711.111111 227.555556c78.392889 0 142.222222 76.572444 142.222222 170.666667 0 179.427556-217.201778 325.006222-341.333333 386.844444-124.245333-61.952-341.333333-207.473778-341.333333-386.844444 0-94.094222 63.829333-170.666667 142.222222-170.666667 36.579556 0 76.629333 25.031111 107.121778 66.958222l46.023111 50.403556c22.698667 31.232 69.290667 31.232 91.989333 0l46.023111-50.403556c30.492444-41.927111 70.542222-66.958222 107.121778-66.958222zM711.111111 113.777778c-80.497778 0-152.177778 49.265778-199.111111 113.777778-46.933333-64.512-118.613333-113.777778-199.111111-113.777778-141.368889 0-256 127.374222-256 284.444444 0 325.347556 455.111111 512 455.111111 512s455.111111-186.652444 455.111111-512c0-157.070222-114.631111-284.444444-256-284.444444l0 0z" fill="#a9b7b7"></path></g></g></svg>