<?xml version="1.0" standalone="no"?><!DOCTYPE svg PUBLIC "-//W3C//DTD SVG 1.1//EN" "http://www.w3.org/Graphics/SVG/1.1/DTD/svg11.dtd"><svg width="200" height="200" viewBox="0 0 200 200" version="1.1" xmlns="http://www.w3.org/2000/svg" xmlns:xlink="http://www.w3.org/1999/xlink"><defs><style type="text/css"><![CDATA[
@font-face {
  font-family: "ifont";
  src: url("//at.alicdn.com/t/font_1442373896_4754455.eot?#iefix") format("embedded-opentype"), url("//at.alicdn.com/t/font_1442373896_4754455.woff") format("woff"), url("//at.alicdn.com/t/font_1442373896_4754455.ttf") format("truetype"), url("//at.alicdn.com/t/font_1442373896_4754455.svg#ifont") format("svg");
}

]]></style></defs><g class="transform-group"><g transform="scale(0.1953125, 0.1953125)"><path d="M654.848 616.576 368.704 248.96 367.552 250.112 273.92 250.112l0 523.776 95.232 0L369.152 403.392l285.696 367.04 0 3.456 95.232 0L750.08 250.112l-95.232 0L654.848 616.576zM882.368 12.032 141.632 12.032C83.2 12.032 35.84 64.704 35.84 129.664l0 764.672c0 65.024 47.36 117.632 105.856 117.632l740.736 0c58.432 0 105.792-52.608 105.792-117.632L988.224 129.664C988.16 64.704 940.8 12.032 882.368 12.032zM892.736 828.224c0 49.6-37.44 89.984-83.776 89.984L213.504 918.208c-46.272 0-83.776-40.384-83.776-89.984L129.728 195.84c0-49.664 37.44-89.984 83.776-89.984l595.52 0c46.336 0 83.776 40.256 83.776 89.984L892.8 828.224z" fill="#ffffff"></path></g></g></svg>