<?xml version="1.0" standalone="no"?><!DOCTYPE svg PUBLIC "-//W3C//DTD SVG 1.1//EN" "http://www.w3.org/Graphics/SVG/1.1/DTD/svg11.dtd"><svg width="209.375" height="200" viewBox="0 0 209.375 200" version="1.1" xmlns="http://www.w3.org/2000/svg" xmlns:xlink="http://www.w3.org/1999/xlink"><defs><style type="text/css"><![CDATA[
@font-face {
  font-family: "ifont";
  src: url("//at.alicdn.com/t/font_1442373896_4754455.eot?#iefix") format("embedded-opentype"), url("//at.alicdn.com/t/font_1442373896_4754455.woff") format("woff"), url("//at.alicdn.com/t/font_1442373896_4754455.ttf") format("truetype"), url("//at.alicdn.com/t/font_1442373896_4754455.svg#ifont") format("svg");
}

]]></style></defs><g class="transform-group"><g transform="scale(0.1953125, 0.1953125)"><path d="M834.921784 1023.905037C826.692639 1023.905037 818.432545 1021.939201 810.863615 1017.960378L535.843027 873.389017 260.822441 1017.960378C243.407717 1027.13673 222.270425 1025.590881 206.35593 1014.02871 190.425224 1002.457697 182.452502 982.845034 185.778645 963.441626L238.293976 657.219434 15.799035 440.342502C1.703086 426.603765-3.37234 406.050922 2.712572 387.323917 8.797483 368.60428 24.984614 354.959856 44.465466 352.123102L351.951684 307.442365 489.458294 28.8288C498.176707 11.174605 516.15144 0 535.843027 0 555.534619 0 573.507876 11.174605 582.227765 28.8288L719.734373 307.442365 1027.220592 352.123102C1046.701445 354.959856 1062.888576 368.604281 1068.973487 387.323917 1075.058398 406.050922 1069.982971 426.603766 1055.887021 440.342502L833.39061 657.219434 885.905939 963.441626C889.232082 982.845034 881.259361 1002.457697 865.328654 1014.02871 856.322867 1020.571666 845.645905 1023.905037 834.921784 1023.905037L834.921784 1023.905037ZM535.843027 763.233029C544.111964 763.233029 552.379426 765.215071 559.910038 769.177688L766.235534 877.638994 726.837611 647.901615C723.955052 631.124235 729.518274 614.006443 741.711674 602.124492L908.637776 439.417057 677.949057 405.903557C661.101712 403.455842 646.5386 392.872167 639.000616 377.611161L535.841556 168.590199 432.682494 377.611161C425.144513 392.872167 410.581401 403.455842 393.734052 405.903557L163.046808 439.41853 329.972908 602.125962C342.164836 614.007918 347.72953 631.125706 344.846971 647.903086L305.449052 877.640469 511.774545 769.179159C519.306632 765.215071 527.574094 763.233029 535.843027 763.233029L535.843027 763.233029Z" fill="#a9a9a9"></path></g></g></svg>