<?xml version="1.0" standalone="no"?><!DOCTYPE svg PUBLIC "-//W3C//DTD SVG 1.1//EN" "http://www.w3.org/Graphics/SVG/1.1/DTD/svg11.dtd"><svg width="200" height="200" viewBox="0 0 200 200" version="1.1" xmlns="http://www.w3.org/2000/svg" xmlns:xlink="http://www.w3.org/1999/xlink"><defs><style type="text/css"><![CDATA[
@font-face {
  font-family: "ifont";
  src: url("//at.alicdn.com/t/font_1442373896_4754455.eot?#iefix") format("embedded-opentype"), url("//at.alicdn.com/t/font_1442373896_4754455.woff") format("woff"), url("//at.alicdn.com/t/font_1442373896_4754455.ttf") format("truetype"), url("//at.alicdn.com/t/font_1442373896_4754455.svg#ifont") format("svg");
}

]]></style></defs><g class="transform-group"><g transform="scale(0.1953125, 0.1953125)"><path d="M116.799258 7.937984 116.799258 7.937984 116.799258 7.937984ZM915.138235 804.578233q0 68.044403-41.388651 107.448558t-110.004589 39.404155l-495.552496 0q-68.600062 0-110.004589-39.404155t-41.388651-107.448558q0-30.053209 1.984496-58.677581t7.937984-61.805147 15.018667-61.51938 24.385488-55.280124 35.149395-45.929178 48.485209-30.338977 63.218109-11.335442q5.096186 0 23.813953 12.192744t42.245953 27.211411 61.233612 27.211411 75.69662 12.192744 75.69662-12.192744 61.233612-27.211411 42.245953-27.211411 23.813953-12.192744q34.593736 0 63.218109 11.335442t48.485209 30.338977 35.149395 45.929178 24.385488 55.280124 15.018667 61.51938 7.937984 61.805147 1.984496 58.677581zM733.691785 298.245953q0 90.159628-63.789643 153.933395t-153.933395 63.789643-153.933395-63.789643-63.789643-153.933395 63.789643-153.933395 153.933395-63.789643 153.933395 63.789643 63.789643 153.933395z" fill="#fff"></path></g></g></svg>